<svg xmlns="http://www.w3.org/2000/svg" viewBox="-378.5 250.5 119 54.583">
  <style>
    .st1{fill:#f33535}
  </style>
  <path class="st1" d="M-319.075,251.8c-0.044,0.009-0.086,0.027-0.125,0.05l-3.2,1.775c-0.013,0.008-0.025,0.016-0.038,0.025 c-0.005,0.005-0.008,0.008-0.013,0.013c-0.005,0.005-0.008,0.008-0.012,0.012c-0.009,0.008-0.017,0.016-0.025,0.025 c-0.019,0.019-0.036,0.041-0.05,0.062c-0.005,0.008-0.009,0.017-0.012,0.025c-0.005,0.008-0.009,0.017-0.013,0.025 c-0.005,0.005-0.008,0.008-0.013,0.012c0,0.005,0,0.008,0,0.012c-0.005,0.008-0.009,0.017-0.012,0.025c0,0.005,0,0.008,0,0.012 c0,0.008,0,0.017,0,0.025c-0.005,0.016-0.009,0.033-0.013,0.05c-0.003,0.025-0.003,0.05,0,0.075v1.312l-3.8,2.113 c-0.125,0.072-0.202,0.206-0.2,0.35v3.45l-1.35,0.75l-0.05,0.025c-0.013,0.008-0.025,0.016-0.038,0.025 c-0.005,0.005-0.008,0.008-0.012,0.013c-0.005,0.005-0.008,0.008-0.013,0.013c-0.009,0.008-0.017,0.016-0.025,0.025 c-0.009,0.008-0.017,0.016-0.025,0.025c-0.009,0.013-0.017,0.025-0.025,0.038c-0.005,0.008-0.009,0.017-0.012,0.025 c-0.005,0.008-0.009,0.017-0.013,0.025c-0.005,0.005-0.008,0.008-0.012,0.013c0,0.005,0,0.008,0,0.012 c-0.005,0.008-0.009,0.017-0.013,0.025c0,0.005,0,0.008,0,0.012c0,0.008,0,0.017,0,0.025c-0.005,0.016-0.009,0.033-0.013,0.05 c-0.003,0.025-0.003,0.05,0,0.075v3.513c-0.002,0.144,0.075,0.278,0.2,0.35l3.175,1.762l0.025,0.013 c0.005,0.005,0.008,0.008,0.012,0.013c0.008,0,0.017,0,0.025,0c0.005,0.005,0.008,0.008,0.013,0.012 c0.008,0.005,0.017,0.009,0.025,0.013c0.005,0,0.008,0,0.013,0c0.008,0,0.017,0,0.025,0c0.005,0.005,0.008,0.008,0.013,0.012 c0.008,0,0.017,0,0.025,0c0.005,0,0.008,0,0.012,0c0.008,0,0.017,0,0.025,0c0.005,0,0.008,0,0.012,0c0.008,0,0.017,0,0.025,0 s0.017,0,0.025,0c0.034-0.005,0.067-0.012,0.1-0.025c0.005,0,0.008,0,0.013,0c0.005-0.005,0.008-0.008,0.013-0.012 c0.008-0.003,0.017-0.008,0.025-0.013l0.038-0.025c0.008-0.003,0.017-0.008,0.025-0.013l0.663-0.362l4.475,2.487 c0.123,0.072,0.277,0.072,0.4,0l4.475-2.487l0.7,0.387c0.013,0.009,0.025,0.017,0.038,0.025c0.008,0,0.017,0,0.025,0 c0.005,0.005,0.008,0.008,0.013,0.012c0.008,0.005,0.017,0.009,0.025,0.013c0.005,0,0.008,0,0.012,0c0.008,0,0.017,0,0.025,0 c0.005,0.005,0.008,0.008,0.012,0.012c0.008,0,0.017,0,0.025,0c0.005,0,0.008,0,0.013,0c0.008,0,0.017,0,0.025,0 c0.005,0,0.008,0,0.013,0c0.008,0,0.017,0,0.025,0s0.017,0,0.025,0c0.034-0.005,0.067-0.012,0.1-0.025c0.005,0,0.008,0,0.013,0 c0.005-0.005,0.008-0.008,0.012-0.012c0.008-0.003,0.017-0.008,0.025-0.013l0.038-0.025c0.008-0.003,0.017-0.008,0.025-0.013 l3.138-1.737c0.125-0.072,0.202-0.206,0.2-0.35c0,0,0-2.904,0-3.35c0-0.35-0.063-0.483-0.363-0.65 c-0.217-0.121-1.237-0.688-1.237-0.688v-3.45c0.002-0.144-0.075-0.278-0.2-0.35l-3.8-2.113c0,0,0-0.672,0-1.15 c0-0.256-0.099-0.504-0.363-0.65c-0.204-0.113-3.037-1.688-3.037-1.688c-0.072-0.041-0.155-0.058-0.238-0.05 C-319.05,251.8-319.062,251.8-319.075,251.8z M-319,252.663l2.375,1.312l-2.375,1.287l-2.375-1.287L-319,252.663z M-321.8,254.65 l2.4,1.3v2.675l-2.4-1.325V254.65z M-316.2,254.65v2.65l-2.4,1.325v-2.675L-316.2,254.65z M-322.6,256.263v1.275 c-0.002,0.144,0.075,0.278,0.2,0.35l3.2,1.775c0.005,0.005,0.008,0.008,0.013,0.012c0.008,0,0.017,0,0.025,0 c0.005,0.005,0.008,0.008,0.013,0.013c0.008,0.005,0.017,0.009,0.025,0.013c0.005,0,0.008,0,0.013,0c0.008,0,0.017,0,0.025,0 c0.005,0.005,0.008,0.008,0.012,0.012c0.008,0,0.017,0,0.025,0c0.005,0,0.008,0,0.012,0c0.008,0,0.017,0,0.025,0 c0.005,0,0.008,0,0.013,0c0.008,0,0.017,0,0.025,0s0.017,0,0.025,0c0.034-0.005,0.067-0.012,0.1-0.025c0.005,0,0.008,0,0.013,0 c0.005-0.005,0.008-0.008,0.012-0.013c0.008-0.003,0.017-0.008,0.025-0.012l0.037-0.025c0.008-0.003,0.017-0.008,0.025-0.013 l3.137-1.737c0.125-0.072,0.202-0.206,0.2-0.35v-1.275l3.2,1.775v2.762l-1-0.55c-0.072-0.041-0.155-0.058-0.237-0.05 c-0.013,0-0.025,0-0.038,0c-0.044,0.009-0.086,0.027-0.125,0.05l-3.2,1.775c-0.008,0.003-0.017,0.008-0.025,0.013 c-0.009,0.008-0.017,0.016-0.025,0.025c-0.005,0.005-0.008,0.008-0.012,0.013c-0.009,0.008-0.017,0.016-0.025,0.025 c-0.031,0.033-0.056,0.07-0.075,0.112c-0.005,0.005-0.008,0.008-0.013,0.013c0,0.005,0,0.008,0,0.012 c-0.005,0.008-0.009,0.017-0.012,0.025c-0.008,0.028-0.011,0.058-0.013,0.087c0,0.008,0,0.017,0,0.025v3.562 c-0.002,0.144,0.075,0.278,0.2,0.35l1.65,0.913l-3.85,2.137l-3.85-2.137l1.65-0.913c0.125-0.072,0.202-0.206,0.2-0.35 c0,0,0-3.013,0-3.35s-0.004-0.451-0.362-0.65c-0.358-0.199-3.038-1.688-3.038-1.688c-0.072-0.041-0.155-0.058-0.238-0.05 c-0.012,0-0.025,0-0.037,0c-0.044,0.009-0.086,0.027-0.125,0.05l-1,0.55v-2.762L-322.6,256.263z M-324.6,261.062l2.375,1.312 l-2.375,1.288l-2.375-1.288l0.9-0.5l0.075-0.038c0.008-0.003,0.017-0.008,0.025-0.012l0.013-0.013 c0.008-0.003,0.017-0.008,0.025-0.013L-324.6,261.062z M-313.4,261.062l1.375,0.763c0.023,0.016,0.048,0.028,0.075,0.037 l0.925,0.513l-2.375,1.288l-2.375-1.288L-313.4,261.062z M-327.4,263.05l2.4,1.3v2.675l-2.4-1.325V263.05z M-321.8,263.05v2.65 l-2.025,1.125h-0.012c-0.008,0.003-0.017,0.008-0.025,0.012c-0.027,0.009-0.052,0.022-0.075,0.038 c-0.009,0.008-0.017,0.016-0.025,0.025l-0.238,0.125v-2.675L-321.8,263.05z M-316.2,263.05l2.4,1.3v2.675l-0.275-0.15 c-0.005-0.005-0.008-0.008-0.012-0.013l-0.025-0.012c-0.013-0.005-0.025-0.009-0.038-0.013l-2.05-1.137V263.05z M-310.6,263.05 v2.65l-2.4,1.325v-2.675L-310.6,263.05z" id="surface1"/>
  <path class="st1" d="M-307,267h36v2h-36V267z M-367,267h36v2h-36V267z"/>
  <path class="st1" d="M-291.725 288.116c-.289 0-.516.137-.678.41s-.242.7-.242 1.281c0 .621.072 1.058.217 1.311s.35.38.613.38c.337 0 .631-.206.88-.618v-2.317c-.114-.148-.234-.26-.359-.335C-291.418 288.154-291.562 288.116-291.725 288.116zM-346.327 288.127c-.331 0-.574.133-.729.399s-.233.693-.233 1.281c0 .594.078 1.023.233 1.29s.398.4.729.4c.331 0 .573-.135.729-.405.155-.27.233-.702.233-1.296 0-.58-.078-1.004-.233-1.271S-345.997 288.127-346.327 288.127zM-298.77 290.87c0 .209.062.371.188.486.125.114.302.172.531.172.182 0 .366-.053.552-.157s.325-.248.42-.43v-.881h-.395C-298.338 290.061-298.77 290.33-298.77 290.87zM-303.811 288.127c-.331 0-.574.133-.729.399-.156.267-.233.693-.233 1.281 0 .594.077 1.023.233 1.29.154.267.397.4.729.4.33 0 .573-.135.729-.405.155-.27.232-.702.232-1.296 0-.58-.077-1.004-.232-1.271S-303.48 288.127-303.811 288.127zM-334.241 288.116c-.29 0-.516.137-.678.41-.162.273-.243.7-.243 1.281 0 .621.072 1.058.217 1.311s.35.38.613.38c.337 0 .631-.206.88-.618v-2.317c-.115-.148-.234-.26-.359-.335C-333.935 288.154-334.079 288.116-334.241 288.116zM-352.442 287.995c-.257 0-.458.081-.603.243s-.218.381-.218.658c0 .29.074.516.223.678.148.162.347.243.597.243.263 0 .465-.079.607-.238.142-.158.212-.393.212-.703C-351.622 288.289-351.896 287.995-352.442 287.995zM-358.475 288.127c-.331 0-.574.133-.729.399s-.233.693-.233 1.281c0 .594.078 1.023.233 1.29s.398.4.729.4c.331 0 .573-.135.729-.405.155-.27.233-.702.233-1.296 0-.58-.078-1.004-.233-1.271S-358.145 288.127-358.475 288.127zM-328.106 288.127c-.331 0-.574.133-.729.399s-.233.693-.233 1.281c0 .594.078 1.023.233 1.29s.398.4.729.4c.331 0 .573-.135.729-.405.155-.27.233-.702.233-1.296 0-.58-.078-1.004-.233-1.271S-327.775 288.127-328.106 288.127zM-273.289 288.127c-.338 0-.632.209-.881.628v2.268c.114.161.234.281.359.359.125.077.268.116.43.116.297 0 .521-.134.674-.4.151-.267.227-.693.227-1.28 0-.635-.066-1.074-.201-1.321C-272.817 288.25-273.02 288.127-273.289 288.127z"/>
  <path class="st1" d="M-377,274.5v29h116v-29H-377z M-280.209,284.568c0.18-0.172,0.406-0.258,0.684-0.258s0.502,0.086,0.678,0.258 s0.264,0.387,0.264,0.643c0,0.264-0.088,0.479-0.264,0.648s-0.4,0.253-0.678,0.253s-0.504-0.086-0.684-0.258 c-0.179-0.173-0.268-0.387-0.268-0.644C-280.477,284.955-280.388,284.74-280.209,284.568z M-363.79,292.672 c-0.628,0-1.099-0.181-1.413-0.541c-0.313-0.361-0.471-0.869-0.471-1.523v-4.525h-1.579v-1.094h3.179v5.821 c0,0.398,0.229,0.597,0.688,0.597c0.25,0,0.506-0.054,0.77-0.161l0.375,1.072C-362.673,292.554-363.189,292.672-363.79,292.672z M-356.552,291.913c-0.459,0.506-1.1,0.759-1.923,0.759c-0.824,0-1.465-0.251-1.923-0.754c-0.459-0.503-0.688-1.206-0.688-2.11 c0-0.574,0.103-1.075,0.309-1.504s0.506-0.763,0.901-1.002c0.395-0.239,0.862-0.359,1.402-0.359c0.816,0,1.456,0.258,1.918,0.774 c0.462,0.517,0.694,1.21,0.694,2.08C-355.863,290.701-356.093,291.406-356.552,291.913z M-350.352,288.208 c0.172,0.216,0.258,0.492,0.258,0.83c0,0.344-0.095,0.652-0.284,0.926s-0.456,0.488-0.8,0.644s-0.742,0.232-1.194,0.232 c-0.223,0-0.432-0.021-0.628-0.061c-0.054,0.026-0.096,0.069-0.126,0.126c-0.03,0.058-0.045,0.117-0.045,0.178 c0,0.101,0.039,0.181,0.116,0.237c0.078,0.058,0.235,0.086,0.471,0.086h0.891c0.405,0,0.763,0.068,1.073,0.203 c0.31,0.135,0.55,0.32,0.719,0.557c0.168,0.236,0.253,0.503,0.253,0.8c0,0.56-0.245,0.997-0.734,1.311 c-0.489,0.314-1.203,0.471-2.141,0.471c-0.668,0-1.193-0.069-1.574-0.207c-0.381-0.139-0.648-0.333-0.8-0.582 c-0.152-0.25-0.228-0.563-0.228-0.941h1.417c0,0.168,0.032,0.3,0.096,0.395s0.184,0.165,0.359,0.213 c0.175,0.047,0.432,0.07,0.77,0.07c0.472,0,0.798-0.054,0.977-0.162c0.179-0.107,0.269-0.26,0.269-0.455 c0-0.162-0.066-0.292-0.197-0.39c-0.132-0.098-0.326-0.147-0.582-0.147h-0.851c-0.553,0-0.968-0.099-1.245-0.298 s-0.415-0.454-0.415-0.765c0-0.202,0.052-0.393,0.157-0.572c0.104-0.179,0.251-0.329,0.44-0.45 c-0.337-0.183-0.581-0.396-0.729-0.643s-0.223-0.545-0.223-0.896c0-0.397,0.102-0.745,0.304-1.042 c0.203-0.297,0.486-0.525,0.851-0.684c0.364-0.158,0.779-0.238,1.245-0.238c0.54,0.014,0.999-0.038,1.376-0.156 s0.763-0.296,1.154-0.532l0.364,1.175c-0.351,0.142-0.867,0.213-1.549,0.213C-350.785,287.807-350.523,287.992-350.352,288.208z M-344.404,291.913c-0.459,0.506-1.1,0.759-1.923,0.759c-0.824,0-1.465-0.251-1.923-0.754c-0.459-0.503-0.688-1.206-0.688-2.11 c0-0.574,0.103-1.075,0.309-1.504s0.506-0.763,0.901-1.002c0.395-0.239,0.862-0.359,1.402-0.359c0.816,0,1.456,0.258,1.918,0.774 c0.462,0.517,0.694,1.21,0.694,2.08C-343.715,290.701-343.945,291.406-344.404,291.913z M-331.852,292.5h-1.417l-0.081-0.587 c-0.162,0.229-0.368,0.413-0.618,0.552c-0.25,0.138-0.54,0.207-0.871,0.207c-0.648,0-1.139-0.256-1.473-0.77 c-0.334-0.513-0.501-1.215-0.501-2.105c0-0.553,0.088-1.046,0.263-1.478c0.176-0.432,0.425-0.77,0.75-1.013 c0.324-0.243,0.702-0.364,1.134-0.364c0.486,0,0.891,0.169,1.214,0.506v-2.632l1.6,0.172V292.5z M-326.183,291.913 c-0.459,0.506-1.1,0.759-1.923,0.759c-0.824,0-1.465-0.251-1.923-0.754c-0.459-0.503-0.688-1.206-0.688-2.11 c0-0.574,0.103-1.075,0.309-1.504s0.506-0.763,0.901-1.002c0.395-0.239,0.862-0.359,1.402-0.359c0.816,0,1.456,0.258,1.918,0.774 c0.462,0.517,0.694,1.21,0.694,2.08C-325.494,290.701-325.724,291.406-326.183,291.913z M-319.795,292.5h-1.762l-0.466-3.614 l-0.486,3.614h-1.731l-0.8-5.375h1.468l0.354,4.373l0.557-3.695h1.356l0.496,3.695l0.365-4.373h1.417L-319.795,292.5z M-313.63,292.5h-1.6v-3.482c0-0.337-0.037-0.57-0.111-0.698s-0.209-0.192-0.405-0.192c-0.162,0-0.318,0.052-0.471,0.156 c-0.151,0.105-0.309,0.259-0.471,0.461v3.756h-1.599v-5.375h1.397l0.111,0.617c0.243-0.27,0.497-0.471,0.765-0.603 c0.267-0.132,0.568-0.197,0.906-0.197c0.465,0,0.828,0.142,1.088,0.425c0.26,0.284,0.39,0.679,0.39,1.185V292.5z M-309.125,292.672 c-0.628,0-1.099-0.181-1.412-0.541c-0.314-0.361-0.471-0.869-0.471-1.523v-4.525h-1.58v-1.094h3.18v5.821 c0,0.398,0.229,0.597,0.688,0.597c0.25,0,0.507-0.054,0.77-0.161l0.375,1.072C-308.008,292.554-308.524,292.672-309.125,292.672z M-301.887,291.913c-0.459,0.506-1.101,0.759-1.924,0.759c-0.824,0-1.465-0.251-1.924-0.754s-0.688-1.206-0.688-2.11 c0-0.574,0.102-1.075,0.309-1.504c0.205-0.429,0.506-0.763,0.9-1.002s0.862-0.359,1.402-0.359c0.816,0,1.456,0.258,1.918,0.774 c0.463,0.517,0.693,1.21,0.693,2.08C-301.199,290.701-301.428,291.406-301.887,291.913z M-295.52,292.651 c-0.324-0.033-0.594-0.105-0.811-0.217c-0.216-0.111-0.385-0.275-0.506-0.491c-0.203,0.236-0.459,0.417-0.77,0.541 c-0.311,0.125-0.641,0.188-0.992,0.188c-0.553,0-0.995-0.156-1.326-0.471c-0.33-0.313-0.496-0.72-0.496-1.22 c0-0.58,0.229-1.03,0.688-1.352c0.459-0.32,1.104-0.48,1.934-0.48h0.719v-0.192c0-0.554-0.354-0.83-1.063-0.83 c-0.182,0-0.409,0.025-0.683,0.076c-0.273,0.05-0.538,0.119-0.795,0.207l-0.364-1.062c0.344-0.129,0.703-0.229,1.078-0.299 c0.375-0.071,0.714-0.106,1.018-0.106c1.565,0,2.349,0.635,2.349,1.903v2.105c0,0.195,0.026,0.341,0.081,0.436 c0.054,0.095,0.145,0.165,0.273,0.212L-295.52,292.651z M-289.335,292.5h-1.417l-0.081-0.587c-0.162,0.229-0.368,0.413-0.618,0.552 c-0.249,0.138-0.539,0.207-0.87,0.207c-0.647,0-1.139-0.256-1.473-0.77c-0.335-0.513-0.501-1.215-0.501-2.105 c0-0.553,0.088-1.046,0.263-1.478c0.176-0.432,0.425-0.77,0.749-1.013s0.702-0.364,1.135-0.364c0.485,0,0.891,0.169,1.214,0.506 v-2.632l1.6,0.172V292.5z M-284.84,292.672c-0.689,0-1.207-0.175-1.555-0.526c-0.348-0.351-0.521-0.844-0.521-1.478v-2.44h-1.123 v-1.103h1.123v-1.165l1.6-0.191v1.356h1.731l-0.162,1.103h-1.569v2.44c0,0.263,0.061,0.452,0.183,0.566 c0.121,0.115,0.317,0.172,0.587,0.172c0.338,0,0.651-0.08,0.941-0.242l0.526,1.022C-283.585,292.51-284.172,292.672-284.84,292.672 z M-277.188,292.5h-4.494v-1.094h1.519v-3.188h-1.468v-1.093h3.067v4.281h1.376V292.5z M-271.078,291.28 c-0.165,0.436-0.402,0.776-0.713,1.022s-0.679,0.369-1.104,0.369c-0.52,0-0.945-0.186-1.275-0.557v2.46l-1.6,0.172v-7.622h1.417 l0.071,0.597c0.209-0.263,0.443-0.459,0.703-0.587s0.521-0.192,0.785-0.192c0.674,0,1.17,0.248,1.487,0.744s0.476,1.199,0.476,2.11 C-270.83,290.351-270.912,290.845-271.078,291.28z"/>
</svg>
