<svg xmlns="http://www.w3.org/2000/svg" viewBox="-160 219 363 140">
  <style>
    .st0{fill:red}.st1{fill:none}.st2{enable-background:new}
  </style>
  <g id="shape.primary" transform="translate(75 223)">
    <path class="st0" d="M-229 46H121V56H-229zM-229 61H121V71H-229zM-229 31H-149V41H-229zM41 76H121V86H41z"/>
  </g>
  <g id="Group-2" transform="translate(159 193)">
    <path id="Rectangle-61" class="st1" d="M-229 31H35V79H-229z"/>
    <g class="st2">
      <path class="st0" d="M-216.3 67.4c-.4.1-.9.1-1.8.2-.8.1-1.7.1-2.6.1-2 0-3.4-.6-4.1-1.8-.8-1.2-1.1-3-1.1-5.5V33.9h6.4v26.3c0 .8.1 1.3.3 1.6.2.3.6.5 1.2.5.4 0 .7 0 1-.1.3 0 .6-.1.7-.1V67.4zM-192 55c0 2.5-.2 4.6-.7 6.3-.4 1.6-1.1 3-2 3.9-.9 1-1.9 1.7-3.2 2-1.3.4-2.8.6-4.5.6-1.7 0-3.2-.2-4.5-.6-1.3-.4-2.4-1.1-3.2-2-.9-1-1.5-2.3-1.9-3.9-.4-1.6-.6-3.7-.6-6.3 0-4.1.8-7.1 2.4-9 1.6-1.9 4.2-2.9 7.8-2.9 3.6 0 6.2 1 7.9 2.9C-192.9 47.9-192 50.9-192 55zM-198.6 55.7c0-1.4-.1-2.6-.2-3.5-.1-.9-.3-1.7-.6-2.3-.3-.6-.7-1-1.2-1.2s-1.1-.4-1.8-.4c-.7 0-1.3.1-1.8.4s-.9.6-1.2 1.2c-.3.6-.5 1.3-.6 2.3-.1.9-.2 2.1-.2 3.5 0 1.3.1 2.5.2 3.3.1.9.3 1.6.6 2.1.3.5.7.9 1.2 1.1s1.1.3 1.8.3c.7 0 1.4-.1 1.8-.3.5-.2.9-.6 1.2-1.1.3-.5.5-1.2.6-2.1C-198.6 58.2-198.6 57.1-198.6 55.7zM-166.7 51.9c0 2.9-.9 5-2.7 6.3-1.8 1.3-4.5 1.9-8.2 1.9-1 0-2 0-2.8-.1-.2.4-.3.8-.3 1.4 0 .2 0 .4.1.8 1-.1 2.1-.2 3.1-.2 1.1 0 1.9-.1 2.5-.1 1.4 0 2.7.1 3.8.4 1.1.3 2.1.7 2.9 1.3.8.6 1.4 1.4 1.8 2.4.4 1 .6 2.2.6 3.7 0 1.6-.3 2.9-.9 3.8-.6.9-1.4 1.7-2.4 2.2-1 .5-2.2.8-3.5 1-1.3.1-2.7.2-4.2.2-.6 0-1.4 0-2.2-.1-.9 0-1.8-.1-2.7-.2-.9-.1-1.7-.2-2.5-.3-.8-.1-1.4-.2-1.9-.3v-5.2c.6.1 1.3.2 2.1.3.8.1 1.6.2 2.5.3.9.1 1.7.1 2.6.2.9 0 1.7.1 2.4.1 1.6 0 2.7-.2 3.3-.5.6-.4.9-.9.9-1.6 0-.6-.2-1.1-.6-1.5-.4-.4-1.2-.6-2.4-.6-.4 0-1.1 0-1.8 0-.8 0-1.6.1-2.4.1-.8 0-1.7.1-2.5.2-.8.1-1.4.1-1.9.2-.5-.4-1-1.1-1.5-2.1-.5-.9-.8-2.1-.8-3.3 0-1.7.4-3.1 1.2-4.2-.8-.7-1.4-1.6-1.8-2.7-.4-1.1-.6-2.4-.6-4 0-1.9.3-3.3 1-4.4.6-1.1 1.5-2 2.5-2.5s2.2-1 3.6-1.2c1.3-.2 2.7-.3 4.1-.3 1.6 0 3 .2 4.2.6l7.9-.3v4.9l-3.1-.2C-166.9 49.2-166.7 50.4-166.7 51.9zM-173.1 51.5c0-1.2-.3-2.1-.8-2.5-.5-.5-1.5-.7-2.9-.7-1.7 0-2.9.3-3.4.8-.6.5-.8 1.5-.8 2.8 0 2.1 1.2 3.1 3.6 3.1.7 0 1.3 0 1.9-.1.6-.1 1-.2 1.4-.5.4-.3.7-.6.9-1.1C-173.2 52.8-173.1 52.2-173.1 51.5zM-140.3 55c0 2.5-.2 4.6-.7 6.3-.4 1.6-1.1 3-2 3.9-.9 1-1.9 1.7-3.2 2-1.3.4-2.8.6-4.5.6-1.7 0-3.2-.2-4.5-.6-1.3-.4-2.4-1.1-3.2-2-.9-1-1.5-2.3-1.9-3.9-.4-1.6-.6-3.7-.6-6.3 0-4.1.8-7.1 2.4-9 1.6-1.9 4.2-2.9 7.8-2.9 3.6 0 6.2 1 7.9 2.9C-141.1 47.9-140.3 50.9-140.3 55zM-146.8 55.7c0-1.4-.1-2.6-.2-3.5-.1-.9-.3-1.7-.6-2.3-.3-.6-.7-1-1.2-1.2s-1.1-.4-1.8-.4c-.7 0-1.3.1-1.8.4s-.9.6-1.2 1.2c-.3.6-.5 1.3-.6 2.3-.1.9-.2 2.1-.2 3.5 0 1.3.1 2.5.2 3.3.1.9.3 1.6.6 2.1.3.5.7.9 1.2 1.1s1.1.3 1.8.3c.7 0 1.4-.1 1.8-.3.5-.2.9-.6 1.2-1.1.3-.5.5-1.2.6-2.1C-146.9 58.2-146.8 57.1-146.8 55.7z"/>
    </g>
  </g>
  <g id="Group" transform="translate(159 280)">
    <path id="Rectangle-" class="st1" d="M-229 31H37V79H-229z"/>
    <g class="st2">
      <path class="st0" d="M-209.8 56.6c0-2.5.2-4.5.7-6.2.4-1.7 1.1-3 2.1-4 .9-1 2.1-1.8 3.6-2.2 1.5-.4 3.2-.6 5.2-.6.3 0 .6 0 .9 0 .3 0 .6 0 .8 0v-9.2h6.4V68h-5.2l-.5-2c-.8.7-1.6 1.3-2.6 1.8-1 .4-2.1.6-3.4.6-1.3 0-2.5-.2-3.5-.6-1-.4-1.8-1-2.5-1.9-.7-.9-1.2-2.1-1.5-3.6C-209.7 60.8-209.8 58.9-209.8 56.6zM-200.2 63c.5 0 1-.1 1.5-.3.4-.2.8-.5 1.1-.8.3-.4.6-.7.7-1.2.2-.4.3-.9.3-1.3V49.2c-.4 0-.7-.1-1.1-.1-.4 0-.7 0-1.1 0-.8 0-1.5.1-2.1.3-.6.2-1.1.6-1.4 1.2-.4.6-.6 1.4-.8 2.4-.2 1-.2 2.4-.2 4.1 0 1.2.1 2.2.2 3 .1.8.3 1.4.6 1.8.3.4.6.7 1 .9C-201.2 62.9-200.7 63-200.2 63zM-164 55.5c0 2.5-.2 4.6-.7 6.3-.4 1.6-1.1 3-2 3.9-.9 1-1.9 1.7-3.2 2-1.3.4-2.8.6-4.5.6-1.7 0-3.2-.2-4.5-.6-1.3-.4-2.4-1.1-3.2-2-.9-1-1.5-2.3-1.9-3.9-.4-1.6-.6-3.7-.6-6.3 0-4.1.8-7.1 2.4-9 1.6-1.9 4.2-2.9 7.8-2.9 3.6 0 6.2 1 7.9 2.9C-164.9 48.4-164 51.4-164 55.5zM-170.6 56.2c0-1.4-.1-2.6-.2-3.5-.1-.9-.3-1.7-.6-2.3-.3-.6-.7-1-1.2-1.2s-1.1-.4-1.8-.4c-.7 0-1.3.1-1.8.4s-.9.6-1.2 1.2c-.3.6-.5 1.3-.6 2.3-.1.9-.2 2.1-.2 3.5 0 1.3.1 2.5.2 3.3.1.9.3 1.6.6 2.1.3.5.7.9 1.2 1.1s1.1.3 1.8.3c.7 0 1.4-.1 1.8-.3.5-.2.9-.6 1.2-1.1.3-.5.5-1.2.6-2.1C-170.6 58.7-170.6 57.6-170.6 56.2zM-135.7 68h-8.4l-2.6-11.8-2.8 11.8h-8.2l-3.7-24h6.4l2.3 18.3 3.5-14h5.7l3.3 14L-138 44h6L-135.7 68zM-128.2 68V44h5.2l.4 1.9c.7-.7 1.6-1.3 2.5-1.7 1-.4 2-.6 3.2-.6 1.7 0 3 .2 4 .6 1 .4 1.8 1 2.4 1.8.6.8.9 1.8 1.1 3 .2 1.2.3 2.6.3 4.2V68h-6.4V53c0-1.6-.2-2.6-.7-3.1s-1.1-.7-2-.7c-1.2 0-2.1.4-2.7 1.1-.6.7-.9 1.5-1 2.3V68H-128.2zM-93.4 67.9c-.4.1-.9.1-1.8.2-.8.1-1.7.1-2.6.1-2 0-3.4-.6-4.1-1.8-.8-1.2-1.1-3-1.1-5.5V34.4h6.4v26.3c0 .8.1 1.3.3 1.6.2.3.6.5 1.2.5.4 0 .7 0 1-.1.3 0 .6-.1.7-.1V67.9zM-69.2 55.5c0 2.5-.2 4.6-.7 6.3-.4 1.6-1.1 3-2 3.9-.9 1-1.9 1.7-3.2 2-1.3.4-2.8.6-4.5.6-1.7 0-3.2-.2-4.5-.6-1.3-.4-2.4-1.1-3.2-2-.9-1-1.5-2.3-1.9-3.9-.4-1.6-.6-3.7-.6-6.3 0-4.1.8-7.1 2.4-9 1.6-1.9 4.2-2.9 7.8-2.9 3.6 0 6.2 1 7.9 2.9C-70 48.4-69.2 51.4-69.2 55.5zM-75.7 56.2c0-1.4-.1-2.6-.2-3.5-.1-.9-.3-1.7-.6-2.3-.3-.6-.7-1-1.2-1.2-.5-.2-1.1-.4-1.8-.4-.7 0-1.3.1-1.8.4s-.9.6-1.2 1.2c-.3.6-.5 1.3-.6 2.3-.1.9-.2 2.1-.2 3.5 0 1.3.1 2.5.2 3.3.1.9.3 1.6.6 2.1.3.5.7.9 1.2 1.1s1.1.3 1.8.3 1.4-.1 1.8-.3c.5-.2.9-.6 1.2-1.1.3-.5.5-1.2.6-2.1C-75.8 58.7-75.7 57.6-75.7 56.2zM-46.8 68c-.6 0-1.4-.1-2.2-.4s-1.5-.8-1.9-1.6c-.6.7-1.4 1.3-2.4 1.8-1 .4-2.3.6-3.9.6-1.1 0-2-.1-2.9-.4-.9-.3-1.7-.7-2.3-1.3-.7-.6-1.2-1.4-1.5-2.4-.4-1-.6-2.2-.6-3.7 0-2.9.9-5 2.6-6.2 1.7-1.2 4.3-1.8 7.6-1.8h2.2v-1c0-.9-.2-1.6-.7-2.1-.5-.5-1.3-.7-2.5-.7-1.4 0-2.6.1-3.8.3s-2.4.5-3.6.8v-5.5c.4-.1 1-.2 1.6-.4.6-.1 1.2-.2 1.9-.3.7-.1 1.3-.2 2-.2.7 0 1.3-.1 1.9-.1 2 0 3.7.2 4.9.5s2.2.9 2.9 1.6c.7.7 1.2 1.6 1.4 2.7.2 1.1.4 2.4.4 3.8v9.5c0 .5.1.9.4 1.1.3.3.8.4 1.5.4V68H-46.8zM-55.5 63.1c.7 0 1.2-.1 1.6-.4.4-.2.7-.5 1-.9.2-.4.4-.7.5-1.1.1-.4.1-.8.1-1.1v-2.2h-2.4c-1 0-1.9.2-2.5.7-.6.4-1 1.2-1 2.3 0 .7.2 1.4.6 1.9C-57.1 62.8-56.4 63.1-55.5 63.1zM-39.9 56.6c0-2.5.2-4.5.7-6.2.4-1.7 1.1-3 2.1-4s2.1-1.8 3.6-2.2c1.5-.4 3.2-.6 5.2-.6.3 0 .6 0 .9 0 .3 0 .6 0 .8 0v-9.2h6.4V68h-5.2l-.5-2c-.8.7-1.6 1.3-2.6 1.8-1 .4-2.1.6-3.4.6-1.3 0-2.5-.2-3.5-.6-1-.4-1.8-1-2.5-1.9s-1.2-2.1-1.5-3.6S-39.9 58.9-39.9 56.6zM-30.3 63c.5 0 1-.1 1.5-.3.4-.2.8-.5 1.1-.8.3-.4.6-.7.7-1.2.2-.4.3-.9.3-1.3V49.2c-.4 0-.7-.1-1.1-.1-.4 0-.7 0-1.1 0-.8 0-1.5.1-2.1.3-.6.2-1.1.6-1.4 1.2-.4.6-.6 1.4-.8 2.4-.2 1-.2 2.4-.2 4.1 0 1.2.1 2.2.2 3 .1.8.3 1.4.6 1.8.3.4.6.7 1 .9C-31.4 62.9-30.9 63-30.3 63zM-6.7 49.5v11.3c0 .8.2 1.3.5 1.7C-6 62.8-5.5 63-4.7 63c.5 0 1.1 0 1.6-.1.6-.1 1-.2 1.4-.3v5.3c-.2 0-.4.1-.8.2-.4.1-.8.1-1.3.2-.5 0-1 .1-1.5.1-.5 0-1 .1-1.4.1-1.3 0-2.4-.2-3.3-.6-.8-.4-1.5-1-1.9-1.7-.5-.7-.8-1.6-.9-2.5-.2-.9-.2-1.9-.2-3v-11h-3.1V44h3.1v-5.8h6.4V44h4.8v5.5H-6.7zM2.4 39.9v-5.5h6.9v5.5H2.4zM2.6 68V44H9v24H2.6zM15.2 76.2V44h5.2l.5 2c.7-.7 1.6-1.3 2.5-1.8 1-.4 2.1-.6 3.4-.6 1.3 0 2.5.2 3.5.6 1 .4 1.8 1 2.4 1.8.6.8 1.1 1.9 1.4 3.3.3 1.4.5 3.1.5 5.2 0 2.6-.2 4.8-.6 6.6-.4 1.8-1 3.2-1.9 4.3-.9 1.1-2 1.9-3.5 2.3-1.4.5-3.2.7-5.3.7-.3 0-.6 0-.9 0-.3 0-.6 0-.9 0v7.8H15.2zM25.1 49c-1.1 0-1.9.4-2.5 1.2-.6.8-1 1.6-1 2.4v10.2c.4 0 .7.1 1.1.1.4 0 .7 0 1 0 .9 0 1.6-.1 2.2-.3.6-.2 1-.6 1.4-1.2S27.8 60 28 59c.1-1 .2-2.4.2-4.1 0-1.2 0-2.2-.1-3-.1-.8-.3-1.4-.5-1.8s-.6-.7-.9-.9C26.2 49.1 25.7 49 25.1 49z"/>
    </g>
  </g>
</svg>
